<svg xmlns="http://www.w3.org/2000/svg" width="39" height="30" viewBox="0 0 39 30">
  <g id="gmail" transform="translate(0 -60)">
    <g id="Caminho_61" data-name="Caminho 61" fill="#fff" stroke-linecap="round">
      <path d="M 38.75 89.75 L 0.25 89.75 L 0.25 60.25 L 38.75 60.25 L 38.75 89.75 Z M 33.037109375 67.25189971923828 L 33.037109375 87.70407867431641 L 33.037109375 87.95407867431641 L 33.287109375 87.95407867431641 L 36.71483993530273 87.95407867431641 L 36.96483993530273 87.95407867431641 L 36.96483993530273 87.70407867431641 L 36.96483993530273 62.29592132568359 L 36.96483993530273 62.04592132568359 L 36.71483993530273 62.04592132568359 L 33.4821891784668 62.04592132568359 L 33.3984489440918 62.04592132568359 L 33.33161163330078 62.09635925292969 L 19.5 72.53331756591797 L 5.668399810791016 62.09635925292969 L 5.601560115814209 62.04592132568359 L 5.517819881439209 62.04592132568359 L 2.285160064697266 62.04592132568359 L 2.035160064697266 62.04592132568359 L 2.035160064697266 62.29592132568359 L 2.035160064697266 87.70407867431641 L 2.035160064697266 87.95407867431641 L 2.285160064697266 87.95407867431641 L 5.712890148162842 87.95407867431641 L 5.962890148162842 87.95407867431641 L 5.962890148162842 87.70407867431641 L 5.962890148162842 67.25189971923828 L 19.34942054748535 77.35305786132813 L 19.5 77.46669006347656 L 19.65057945251465 77.35305786132813 L 33.037109375 67.25189971923828 Z M 7.748050212860107 70.84391021728516 L 7.748050212860107 71.34574127197266 L 7.748050212860107 87.70407867431641 L 7.748050212860107 87.95407867431641 L 7.998050212860107 87.95407867431641 L 31.00194931030273 87.95407867431641 L 31.25194931030273 87.95407867431641 L 31.25194931030273 87.70407867431641 L 31.25194931030273 71.34574127197266 L 31.25194931030273 70.84391021728516 L 30.85136985778809 71.14617919921875 L 19.5 79.71166229248047 L 8.148630142211914 71.14617919921875 L 7.748050212860107 70.84391021728516 Z M 8.576689720153809 62.04592132568359 L 9.172479629516602 62.49547958374023 L 19.34942054748535 70.17471313476563 L 19.5 70.28833770751953 L 19.65057945251465 70.17471313476563 L 29.82752990722656 62.49547958374023 L 30.42332077026367 62.04592132568359 L 29.67695045471191 62.04592132568359 L 9.323060035705566 62.04592132568359 L 8.576689720153809 62.04592132568359 Z" stroke="none"/>
      <path d="M 0.5 60.5 L 0.5 89.5 L 38.5 89.5 L 38.5 60.5 L 0.5 60.5 M 19.5 72.22012329101563 L 33.18101119995117 61.89679718017578 L 33.31470108032227 61.79592132568359 L 33.48218154907227 61.79592132568359 L 36.71483993530273 61.79592132568359 L 37.21483993530273 61.79592132568359 L 37.21483993530273 62.29592132568359 L 37.21483993530273 87.70407867431641 L 37.21483993530273 88.20407867431641 L 36.71483993530273 88.20407867431641 L 33.28710174560547 88.20407867431641 L 32.78710174560547 88.20407867431641 L 32.78710174560547 87.70407867431641 L 32.78710174560547 67.75373077392578 L 19.80117034912109 77.55261993408203 L 19.5 77.77987670898438 L 19.19882965087891 77.55261993408203 L 6.212890625 67.75373077392578 L 6.212890625 87.70407867431641 L 6.212890625 88.20407867431641 L 5.712890625 88.20407867431641 L 2.285160064697266 88.20407867431641 L 1.785160064697266 88.20407867431641 L 1.785160064697266 87.70407867431641 L 1.785160064697266 62.29592132568359 L 1.785160064697266 61.79592132568359 L 2.285160064697266 61.79592132568359 L 5.517810821533203 61.79592132568359 L 5.685291290283203 61.79592132568359 L 5.818981170654297 61.89679718017578 L 19.5 72.22012329101563 M 19.5 70.60151672363281 L 19.19882965087891 70.374267578125 L 9.021890640258789 62.69503784179688 L 7.830329895019531 61.79592132568359 L 9.32305908203125 61.79592132568359 L 29.67694091796875 61.79592132568359 L 31.16967010498047 61.79592132568359 L 29.97811126708984 62.69503784179688 L 19.80117034912109 70.374267578125 L 19.5 70.60151672363281 M 19.5 79.39847564697266 L 30.70077896118164 70.94661712646484 L 31.50194931030273 70.34207916259766 L 31.50194931030273 71.34574127197266 L 31.50194931030273 87.70407867431641 L 31.50194931030273 88.20407867431641 L 31.00194931030273 88.20407867431641 L 7.998050689697266 88.20407867431641 L 7.498050689697266 88.20407867431641 L 7.498050689697266 87.70407867431641 L 7.498050689697266 71.34574127197266 L 7.498050689697266 70.34207916259766 L 8.299219131469727 70.94661712646484 L 19.5 79.39847564697266 M 0 60 L 39 60 L 39 90 L 0 90 L 0 60 Z M 19.5 72.84649658203125 L 5.517810821533203 62.29592132568359 L 2.285160064697266 62.29592132568359 L 2.285160064697266 87.70407867431641 L 5.712890625 87.70407867431641 L 5.712890625 66.75006866455078 L 19.5 77.15350341796875 L 33.28710174560547 66.75006866455078 L 33.28710174560547 87.70407867431641 L 36.71483993530273 87.70407867431641 L 36.71483993530273 62.29592132568359 L 33.48218154907227 62.29592132568359 L 19.5 72.84649658203125 Z M 9.32305908203125 62.29592132568359 L 19.5 69.97515106201172 L 29.67694091796875 62.29592132568359 L 9.32305908203125 62.29592132568359 Z M 19.5 80.02484893798828 L 7.998050689697266 71.34574127197266 L 7.998050689697266 87.70407867431641 L 31.00194931030273 87.70407867431641 L 31.00194931030273 71.34574127197266 L 19.5 80.02484893798828 Z" stroke="none" fill="#111"/>
    </g>
  </g>
</svg>
