<svg xmlns="http://www.w3.org/2000/svg" width="25" height="30" viewBox="0 0 25 30">
  <path id="pinterest" d="M3.215,17.48l1.033.666L4.639,16.7c.692-2.538.618-2.426.688-2.708a8.647,8.647,0,0,1-.249-4.382l.01-.053c.693-4.5,8.351-5.731,11.907-2.8a5.385,5.385,0,0,1,1.669,5.488,8,8,0,0,1-1.745,3.919A3.01,3.01,0,0,1,13.3,17.183a1.471,1.471,0,0,1-.731-1.849,29.362,29.362,0,0,0,1.482-5.822,2.981,2.981,0,0,0-2.4-3.188A4.016,4.016,0,0,0,7.136,8.97a6.556,6.556,0,0,0,.005,4.825,22.235,22.235,0,0,1-.776,3.328C5.292,21.04,3.821,26.406,5.254,29.138L5.706,30l.827-.529c2.363-1.512,3.743-5.911,4.5-8.651,1.991,1.452,4.813,1.574,7.6.232A11.166,11.166,0,0,0,24.61,8.033C22.94,1.653,16.462-.82,9.937.237c-5.379.871-8.8,4.3-9.708,8.529-.766,3.567.434,7.069,2.987,8.714ZM1.975,9.129c.811-3.777,3.9-6.453,8.251-7.159,5.231-.847,11.173.835,12.655,6.5a9.423,9.423,0,0,1-5.027,11c-2.075,1-4.895,1.293-6.587-.869l-1.1-1.41L9.7,18.915c-.615,2.27-1.609,6.123-3.206,8.182-.314-2.547.852-6.8,1.6-9.516.71-2.592.989-3.669.752-4.326A4.919,4.919,0,0,1,8.8,9.616a2.253,2.253,0,0,1,2.472-1.577,1.218,1.218,0,0,1,1,1.37,29.264,29.264,0,0,1-1.411,5.422,3.209,3.209,0,0,0,1.587,3.895,4.793,4.793,0,0,0,5.827-1.417,9.659,9.659,0,0,0,2.143-4.738,8.138,8.138,0,0,0-.206-4.2A6.555,6.555,0,0,0,18.14,5.412C13.534,1.615,4.264,3.359,3.327,9.268a10.042,10.042,0,0,0,.162,4.784c-.071.306-.172.7-.278,1.1A7.017,7.017,0,0,1,1.975,9.129Zm0,0" transform="translate(0 -0.001)" fill="#fff"/>
</svg>
