<svg id="logo_back_1920x1080" xmlns="http://www.w3.org/2000/svg" width="1756.097" height="1080" viewBox="0 0 1756.097 1080">
  <g id="Caminho_14" data-name="Caminho 14" transform="translate(870.993 -219.478)" fill="rgba(124,252,0,0)">
    <path d="M 493.1086120605469 597.4053344726563 L 450.5003051757813 546.6220092773438 L 828.1502075195313 229.7352447509766 C 831.1862182617188 227.1842956542969 834.6000366210938 225.2217102050781 838.2980346679688 223.9008331298828 C 841.8706665039063 222.6247100830078 845.6156616210938 221.9776458740234 849.4290771484375 221.9776458740234 C 859.2694091796875 221.9776458740234 868.5333862304688 226.2948913574219 874.8457641601563 233.8224182128906 C 877.7255249023438 237.2556457519531 879.8458862304688 241.1471252441406 881.1480102539063 245.3890075683594 C 882.4058227539063 249.4862976074219 882.8526000976563 253.73876953125 882.4758911132813 258.0284118652344 C 882.099365234375 262.3167114257813 880.9189453125 266.4250183105469 878.967529296875 270.2390747070313 C 876.9483642578125 274.185546875 874.1864624023438 277.6440124511719 870.7586669921875 280.5183715820313 L 493.1086120605469 597.4053344726563 Z" stroke="none"/>
    <path d="M 849.428955078125 224.4776611328125 C 845.9029541015625 224.4776611328125 842.44091796875 225.0756225585938 839.138916015625 226.2550659179688 C 835.7218017578125 227.4756469726563 832.566162109375 229.2901611328125 829.7572021484375 231.6502685546875 L 454.0222778320313 546.93017578125 L 493.4168701171875 593.8832397460938 L 869.1522827148438 278.6027221679688 C 872.3223876953125 275.9444580078125 874.8758544921875 272.7474365234375 876.7418823242188 269.100341796875 C 878.5458984375 265.5744018554688 879.63720703125 261.775634765625 879.9854736328125 257.8096923828125 C 880.3338623046875 253.8425903320313 879.9208984375 249.9104614257813 878.758056640625 246.1226806640625 C 877.5546875 242.2022705078125 875.593994140625 238.6046142578125 872.9301147460938 235.4288330078125 C 867.093994140625 228.4691772460938 858.5281982421875 224.4776611328125 849.428955078125 224.4776611328125 M 849.4290161132813 219.4776611328125 C 859.6080932617188 219.4776611328125 869.7152709960938 223.8135375976563 876.7613525390625 232.216064453125 C 889.427490234375 247.3162841796875 887.4405517578125 269.7925415039063 872.364990234375 282.4340209960938 L 492.8004150390625 600.9275512695313 L 446.978271484375 546.3137817382813 L 826.543212890625 227.820068359375 C 833.2159423828125 222.2136840820313 841.345458984375 219.4776611328125 849.4290161132813 219.4776611328125 Z" stroke="none" fill="#333"/>
  </g>
  <g id="Caminho_15" data-name="Caminho 15" transform="translate(-176.794 -76.891)" fill="rgba(124,252,0,0)">
    <path d="M 697.7757568359375 1154.390991210938 C 687.9450073242188 1154.39111328125 678.689453125 1150.077392578125 672.3823852539063 1142.55615234375 L 475.558349609375 907.982177734375 L 473.8046569824219 905.8922119140625 L 473.7547302246094 905.942138671875 L 431.702392578125 855.8486328125 L 431.8013000488281 855.7994384765625 L 429.7612915039063 853.3683471679688 L 187.0412902832031 564.106201171875 C 184.1677551269531 560.6792602539063 182.0508270263672 556.7923583984375 180.7500610351563 552.55419921875 C 179.4929809570313 548.4588012695313 179.0457458496094 544.2074584960938 179.4209747314453 539.9183349609375 C 179.7960510253906 535.6289672851563 180.9746704101563 531.5189819335938 182.9240570068359 527.7023315429688 C 184.9417419433594 523.752197265625 187.7028198242188 520.2889404296875 191.13037109375 517.4093017578125 L 191.2163696289063 517.3369750976563 L 191.2387542724609 517.314453125 C 194.2543029785156 514.8024291992188 197.6395111083984 512.8665161132813 201.3023681640625 511.5594177246094 C 204.8752899169922 510.2843627929688 208.6197509765625 509.6378784179688 212.4314422607422 509.6378784179688 C 222.2623596191406 509.6378784179688 231.5177459716797 513.951416015625 237.8243713378906 521.4725341796875 L 480.5198974609375 810.735107421875 L 482.1268310546875 812.6503295898438 L 484.0420532226563 811.0432739257813 L 1105.482421875 289.5914306640625 L 1107.341796875 288.0312805175781 L 1106.96923828125 287.5597229003906 L 1132.429077148438 266.1961975097656 C 1135.465576171875 263.6500549316406 1138.880249023438 261.6898803710938 1142.57763671875 260.3705139160156 C 1146.150634765625 259.0954284667969 1149.895141601563 258.448974609375 1153.706787109375 258.448974609375 C 1163.537719726563 258.448974609375 1172.793090820313 262.7625122070313 1179.099853515625 270.2834167480469 L 1420.188354492188 557.6065063476563 L 1394.784057617188 578.9226684570313 C 1391.747802734375 581.4688110351563 1388.333129882813 583.428955078125 1384.635864257813 584.74853515625 C 1381.062866210938 586.0235595703125 1377.318359375 586.6700439453125 1373.506713867188 586.6700439453125 C 1363.67578125 586.6700439453125 1354.420532226563 582.3565063476563 1348.113891601563 574.83544921875 L 1151.587646484375 340.7081909179688 L 1149.98046875 338.7935791015625 L 1148.065795898438 340.4003601074219 L 526.650390625 861.876953125 L 524.7354125976563 863.48388671875 L 526.3423461914063 865.3989868164063 L 699.4723510742188 1071.734375 L 701.0792846679688 1073.649536132813 L 702.994384765625 1072.04248046875 L 1129.424560546875 714.2335815429688 C 1132.4609375 711.6875610351563 1135.87548828125 709.727294921875 1139.572875976563 708.4078979492188 C 1143.145874023438 707.1329956054688 1146.890258789063 706.4865112304688 1150.702026367188 706.4865112304688 C 1160.532836914063 706.4865112304688 1169.788208007813 710.800048828125 1176.094970703125 718.3211059570313 C 1178.969116210938 721.7486572265625 1181.086059570313 725.6354370117188 1182.386962890625 729.8735961914063 C 1183.643920898438 733.968994140625 1184.091186523438 738.22021484375 1183.715942382813 742.5090942382813 C 1183.3408203125 746.7986450195313 1182.162231445313 750.9086303710938 1180.212768554688 754.7252807617188 C 1178.195190429688 758.6754150390625 1175.43408203125 762.138671875 1172.006469726563 765.0183715820313 L 745.6025390625 1122.801391601563 L 743.6891479492188 1124.406860351563 L 744.4589233398438 1125.325927734375 L 719.052978515625 1146.643676757813 C 716.0165405273438 1149.18994140625 712.60205078125 1151.150024414063 708.9048461914063 1152.469482421875 C 705.3319091796875 1153.744384765625 701.5875854492188 1154.390869140625 697.7757568359375 1154.390991210938 Z" stroke="none"/>
    <path d="M 1153.70703125 260.9488525390625 C 1150.182250976563 260.9488525390625 1146.720458984375 261.5465087890625 1143.417724609375 262.72509765625 C 1140.000610351563 263.9443359375 1136.84375 265.757080078125 1134.036254882813 268.1112060546875 L 1110.435791015625 287.91455078125 L 1110.808227539063 288.385986328125 L 1107.08935546875 291.506591796875 L 485.6490478515625 812.9583740234375 L 481.818603515625 816.1725463867188 L 478.604736328125 812.3418579101563 L 235.9088134765625 523.078857421875 C 230.078125 516.1255493164063 221.5208740234375 512.1376953125 212.431640625 512.1380615234375 C 208.90673828125 512.1380615234375 205.4449462890625 512.7357177734375 202.1424560546875 513.9141845703125 C 198.7911376953125 515.110107421875 195.6900634765625 516.8765869140625 192.922119140625 519.1661376953125 L 192.9044189453125 519.1838989257813 L 192.7384033203125 519.3231811523438 C 189.5682373046875 521.9868774414063 187.0152587890625 525.1885375976563 185.150390625 528.8395385742188 C 183.3482666015625 532.3680419921875 182.2584228515625 536.1688842773438 181.911376953125 540.13623046875 C 181.564453125 544.10302734375 181.977783203125 548.0342407226563 183.139892578125 551.820556640625 C 184.342041015625 555.7373657226563 186.29931640625 559.33056640625 188.956298828125 562.4990234375 L 431.6763916015625 851.7613525390625 L 435.7625732421875 856.6312255859375 L 435.6644287109375 856.6798706054688 L 473.91552734375 902.24560546875 L 473.9659423828125 902.1951904296875 L 477.473388671875 906.3753662109375 L 674.2977905273438 1140.94970703125 C 680.1286010742188 1147.90283203125 688.6860961914063 1151.890869140625 697.7759399414063 1151.890869140625 C 701.3005981445313 1151.890869140625 704.7622680664063 1151.293334960938 708.0647583007813 1150.114868164063 C 711.4815673828125 1148.8955078125 714.6382446289063 1147.0830078125 717.4461059570313 1144.728759765625 L 740.938720703125 1125.016357421875 L 740.1687622070313 1124.097045898438 L 743.99560546875 1120.885986328125 L 1170.398193359375 763.1041870117188 C 1173.568603515625 760.4405517578125 1176.12158203125 757.2388916015625 1177.986450195313 753.587890625 C 1179.788818359375 750.0593872070313 1180.87841796875 746.2587280273438 1181.225463867188 742.2913818359375 C 1181.572387695313 738.3245239257813 1181.159057617188 734.3933715820313 1179.996948242188 730.6070556640625 C 1178.794799804688 726.6905517578125 1176.83740234375 723.0973510742188 1174.17919921875 719.9275512695313 C 1168.3486328125 712.9740600585938 1159.79150390625 708.9862060546875 1150.7021484375 708.986572265625 C 1147.17724609375 708.986572265625 1143.715454101563 709.584228515625 1140.412963867188 710.7626953125 C 1136.995727539063 711.9820556640625 1133.8388671875 713.7945556640625 1131.03125 716.1488647460938 L 704.6012573242188 1073.957763671875 L 700.7711181640625 1077.171508789063 L 697.5570678710938 1073.341186523438 L 524.4271240234375 867.005859375 L 521.21337890625 863.1759033203125 L 525.043212890625 859.9620361328125 L 1146.458618164063 338.4853515625 L 1150.288330078125 335.271484375 L 1153.50244140625 339.1007080078125 L 1350.029418945313 573.2290649414063 C 1355.859741210938 580.1821899414063 1364.4169921875 584.1700439453125 1373.506469726563 584.1700439453125 C 1377.031127929688 584.1700439453125 1380.492797851563 583.5723876953125 1383.79541015625 582.3938598632813 C 1387.212646484375 581.1743774414063 1390.369262695313 579.3618774414063 1393.177124023438 577.0073852539063 L 1416.666015625 557.2982177734375 L 1177.184326171875 271.8897705078125 C 1171.353637695313 264.9364013671875 1162.79638671875 260.948486328125 1153.70703125 260.9488525390625 M 1153.706909179688 255.9488525390625 C 1163.875732421875 255.9486083984375 1173.971923828125 260.2772216796875 1181.015625 268.677001953125 L 1423.710205078125 557.91455078125 L 1396.390869140625 580.8377075195313 C 1389.715576171875 586.4354248046875 1381.587890625 589.1700439453125 1373.506469726563 589.1700439453125 C 1363.337646484375 589.1700439453125 1353.24169921875 584.8417358398438 1346.198120117188 576.4417114257813 L 1149.672729492188 342.3154296875 L 528.2574462890625 863.7920532226563 L 701.387451171875 1070.12744140625 L 1127.8173828125 712.3185424804688 C 1134.493041992188 706.7208862304688 1142.620483398438 703.9866943359375 1150.701904296875 703.9865112304688 C 1160.87060546875 703.9862670898438 1170.966918945313 708.31494140625 1178.010620117188 716.7149047851563 C 1190.652099609375 731.7898559570313 1188.690063476563 754.266357421875 1173.614624023438 766.932373046875 L 747.2094116210938 1124.71630859375 L 747.979248046875 1125.635498046875 L 720.659912109375 1148.558837890625 C 713.9844360351563 1154.156616210938 705.8572998046875 1156.890991210938 697.7759399414063 1156.890991210938 C 687.6070556640625 1156.890991210938 677.5103759765625 1152.562255859375 670.4666137695313 1144.162353515625 L 473.64306640625 909.5892333984375 L 473.5936279296875 909.638671875 L 427.7467041015625 855.0247192382813 L 427.8463134765625 854.9754028320313 L 185.1260986328125 565.7130737304688 C 172.4847412109375 550.6375732421875 174.4468994140625 528.1611938476563 189.5220947265625 515.4950561523438 L 189.547119140625 515.4700317382813 C 196.2225341796875 509.8724365234375 204.35009765625 507.13818359375 212.431396484375 507.1380004882813 C 222.6002197265625 507.1377563476563 232.6964111328125 511.4663696289063 239.7401123046875 519.8662109375 L 482.43505859375 809.1282348632813 L 1103.87548828125 287.6763916015625 L 1103.5029296875 287.204833984375 L 1130.822265625 264.281005859375 C 1137.497802734375 258.683349609375 1145.62548828125 255.9490966796875 1153.706909179688 255.9488525390625 Z" stroke="none" fill="#333"/>
  </g>
</svg>
