<svg id="logo_back_1366x768" xmlns="http://www.w3.org/2000/svg" width="1248.78" height="768" viewBox="0 0 1248.78 768">
  <g id="Caminho_14" data-name="Caminho 14" transform="translate(490.246 -219.478)" fill="rgba(124,252,0,0)">
    <path d="M 479.87109375 487.2088012695313 L 450.5002746582031 452.2027282714844 L 718.4981079101563 227.3251647949219 C 720.5914916992188 225.5662841796875 722.9445190429688 224.2134094238281 725.4930419921875 223.3031158447266 C 727.9553833007813 222.423583984375 730.5367431640625 221.9776153564453 733.1654663085938 221.9776153564453 C 739.948974609375 221.9776153564453 746.3350219726563 224.9536285400391 750.6862182617188 230.1424560546875 C 752.6716918945313 232.5094909667969 754.13330078125 235.1918792724609 755.03076171875 238.1154174804688 C 755.8977661132813 240.9396667480469 756.2056884765625 243.8711242675781 755.9459838867188 246.8283233642578 C 755.6864013671875 249.7846984863281 754.8727416992188 252.61669921875 753.5276489257813 255.2457122802734 C 752.1361083984375 257.965576171875 750.2322998046875 260.3494262695313 747.8692016601563 262.3309936523438 L 479.87109375 487.2088012695313 Z" stroke="none"/>
    <path d="M 733.16552734375 224.4776306152344 C 730.8240966796875 224.4776306152344 728.525634765625 224.8746032714844 726.333984375 225.657470703125 C 724.0662841796875 226.4674682617188 721.971435546875 227.6721801757813 720.1051025390625 229.2402648925781 L 454.0222778320313 452.5109252929688 L 480.1793212890625 483.6866455078125 L 746.2628173828125 260.4153137207031 C 750.4259033203125 256.9243774414063 752.9803466796875 252.0214233398438 753.45556640625 246.6096496582031 C 753.9310302734375 241.1950988769531 752.267333984375 235.9176025390625 748.7705688476563 231.7488098144531 C 744.8956298828125 227.1278686523438 739.207763671875 224.4776306152344 733.16552734375 224.4776306152344 M 733.16552734375 219.4776306152344 C 740.4039306640625 219.4776306152344 747.5911865234375 222.5609436035156 752.601806640625 228.5360412597656 C 761.6087646484375 239.2739868164063 760.1958618164063 255.2571411132813 749.4755249023438 264.24658203125 L 479.5628662109375 490.73095703125 L 446.978271484375 451.8945007324219 L 716.8911743164063 225.4100341796875 C 721.6361694335938 221.4232788085938 727.417236328125 219.4776306152344 733.16552734375 219.4776306152344 Z" stroke="none" fill="#333"/>
  </g>
  <g id="Caminho_15" data-name="Caminho 15" transform="translate(-176.794 -128.619)" fill="rgba(124,252,0,0)">
    <path d="M 547.2698364257813 894.1188354492188 C 540.4932861328125 894.1189575195313 534.11328125 891.1456298828125 529.7658081054688 885.9612426757813 L 389.8019104003906 719.1529541015625 L 388.051025390625 717.066162109375 L 388.015380859375 717.1016845703125 L 359.205078125 682.7823486328125 L 359.275146484375 682.7474975585938 L 357.2351379394531 680.3162841796875 L 184.6342620849609 474.6185913085938 C 182.6533660888672 472.2563781738281 181.1941528320313 469.5771484375 180.2975921630859 466.6562805175781 C 179.43115234375 463.8332824707031 179.1229248046875 460.902587890625 179.3814849853516 457.9457092285156 C 179.6401519775391 454.9883728027344 180.4525909423828 452.1550598144531 181.7963714599609 449.5243835449219 C 183.1870422363281 446.8018188476563 185.0902557373047 444.4146118164063 187.453369140625 442.4292602539063 L 187.5422515869141 442.3544921875 L 187.5565948486328 442.3399658203125 C 189.6283569335938 440.6198425292969 191.9520568847656 439.2932739257813 194.4648132324219 438.3966064453125 C 196.9275970458984 437.517822265625 199.5085906982422 437.072265625 202.1362609863281 437.072265625 C 208.9129180908203 437.072265625 215.2928161621094 440.0455017089844 219.6400299072266 445.2297058105469 L 392.2236022949219 650.927734375 L 393.8305969238281 652.8429565429688 L 395.7458190917969 651.2359619140625 L 837.6590576171875 280.4258117675781 L 839.5183715820313 278.8656005859375 L 839.25341796875 278.5301818847656 L 856.8211669921875 263.7891540527344 C 858.9142456054688 262.033935546875 861.2680053710938 260.6827087402344 863.8162841796875 259.7732543945313 C 866.279052734375 258.8945007324219 868.8600463867188 258.4489440917969 871.4877319335938 258.4489440917969 C 878.2643432617188 258.4489440917969 884.644287109375 261.4221496582031 888.991455078125 266.6063842773438 L 1059.968017578125 470.3718566894531 L 1042.4560546875 485.0658264160156 C 1040.363037109375 486.821044921875 1038.009399414063 488.1723937988281 1035.461059570313 489.0817260742188 C 1032.998413085938 489.9606018066406 1030.417236328125 490.4061584472656 1027.78955078125 490.4061584472656 C 1021.012939453125 490.4061584472656 1014.633117675781 487.4328308105469 1010.286010742188 482.2485961914063 L 870.53369140625 315.7577209472656 L 868.9266967773438 313.8431701660156 L 867.0119018554688 315.4500427246094 L 425.1164855957031 686.2779541015625 L 423.2014770507813 687.8848266601563 L 424.8083801269531 689.7998046875 L 547.9230346679688 836.5272827148438 L 549.5299072265625 838.4425048828125 L 551.4451293945313 836.8355102539063 L 854.6845092773438 582.3934936523438 C 856.777587890625 580.6383666992188 859.1312866210938 579.2870483398438 861.6795043945313 578.3778076171875 C 864.1420288085938 577.4990234375 866.7230224609375 577.0534057617188 869.3507080078125 577.0534057617188 C 876.1275024414063 577.0534057617188 882.5075073242188 580.0267333984375 886.8546752929688 585.2110595703125 C 888.8361206054688 587.5739135742188 890.2953491210938 590.2530517578125 891.19189453125 593.1739501953125 C 892.058349609375 595.9969482421875 892.3665771484375 598.9276123046875 892.1080322265625 601.884521484375 C 891.849365234375 604.8417358398438 891.0368041992188 607.675048828125 889.6931762695313 610.3058471679688 C 888.302490234375 613.0283813476563 886.399169921875 615.4154663085938 884.0360107421875 617.4009399414063 L 580.8157958984375 871.8240356445313 L 578.90234375 873.4295043945313 L 579.4498291015625 874.0831909179688 L 561.9361572265625 888.7786865234375 C 559.843017578125 890.5338134765625 557.4893798828125 891.8851318359375 554.941162109375 892.7944946289063 C 552.4785766601563 893.6732788085938 549.8975830078125 894.1188354492188 547.2698364257813 894.1188354492188 Z" stroke="none"/>
    <path d="M 871.48779296875 260.9488525390625 C 869.1470947265625 260.9488525390625 866.8487548828125 261.3455810546875 864.6563720703125 262.1279296875 C 862.3885498046875 262.937255859375 860.29248046875 264.140869140625 858.4280395507813 265.7042846679688 L 842.7202758789063 278.884521484375 L 842.9853515625 279.2199096679688 L 839.2660522460938 282.3408813476563 L 397.3527221679688 653.151123046875 L 393.5222778320313 656.365234375 L 390.3084106445313 652.53466796875 L 217.724365234375 446.8360595703125 C 213.8533325195313 442.2196044921875 208.171630859375 439.5720825195313 202.1363525390625 439.572265625 C 199.795654296875 439.572265625 197.497314453125 439.968994140625 195.304931640625 440.7513427734375 C 193.1014404296875 441.5376586914063 191.0601806640625 442.6962890625 189.23486328125 444.1964111328125 L 189.227294921875 444.2039184570313 L 189.0614013671875 444.3433227539063 C 184.89892578125 447.8406372070313 182.3455810546875 452.748779296875 181.8719482421875 458.1634521484375 C 181.3985595703125 463.576904296875 183.06005859375 468.8505249023438 186.54931640625 473.0118408203125 L 359.1502685546875 678.7093505859375 L 363.2335815429688 683.5755615234375 L 363.1640625 683.610107421875 L 388.173583984375 713.4019775390625 L 388.2097778320313 713.36572265625 L 391.7171020507813 717.5457763671875 L 531.6812133789063 884.3548583984375 C 535.5523681640625 888.97119140625 541.2342529296875 891.618896484375 547.2698974609375 891.618896484375 C 549.6104125976563 891.618896484375 551.9087524414063 891.22216796875 554.1008911132813 890.43994140625 C 556.3687744140625 889.630615234375 558.4647216796875 888.427001953125 560.3292236328125 886.8635864257813 L 575.9293212890625 873.773681640625 L 575.3818359375 873.1200561523438 L 579.2088623046875 869.9089965820313 L 882.4277954101563 615.4867553710938 C 886.5905151367188 611.9894409179688 889.143798828125 607.0813598632813 889.617431640625 601.6666259765625 C 890.0908203125 596.2532348632813 888.429443359375 590.9796752929688 884.93896484375 586.8173217773438 C 881.0679321289063 582.2008666992188 875.3862915039063 579.55322265625 869.350830078125 579.5533447265625 C 867.01025390625 579.5533447265625 864.7119140625 579.9500732421875 862.5196533203125 580.732421875 C 860.251708984375 581.5416870117188 858.15576171875 582.7452392578125 856.2913818359375 584.3086547851563 L 553.0520629882813 838.7506103515625 L 549.2218017578125 841.9645385742188 L 546.0079345703125 838.13427734375 L 422.8931884765625 691.40673828125 L 419.679443359375 687.5767822265625 L 423.5093383789063 684.36279296875 L 865.4049072265625 313.5349731445313 L 869.2344970703125 310.3213500976563 L 872.4486083984375 314.1505126953125 L 1012.201538085938 480.6422729492188 C 1016.072509765625 485.2586669921875 1021.754150390625 487.9061889648438 1027.789672851563 487.9061889648438 C 1030.130126953125 487.9061889648438 1032.428466796875 487.5094604492188 1034.620849609375 486.7271118164063 C 1036.888793945313 485.9178466796875 1038.984619140625 484.7142944335938 1040.84912109375 483.1507568359375 L 1056.445922851563 470.063720703125 L 887.0758056640625 268.212646484375 C 883.2047119140625 263.59619140625 877.5230712890625 260.9486694335938 871.48779296875 260.9488525390625 M 871.4876708984375 255.9488525390625 C 878.7188720703125 255.9486694335938 885.8983154296875 259.0267944335938 890.9071044921875 264.9999389648438 L 1063.489990234375 470.6800537109375 L 1044.06298828125 486.9810180664063 C 1039.316162109375 490.9616088867188 1033.536376953125 492.9061889648438 1027.789672851563 492.9061889648438 C 1020.558471679688 492.9061889648438 1013.379089355469 489.8282470703125 1008.370239257813 483.85498046875 L 868.6190185546875 317.3651123046875 L 426.7234497070313 688.19287109375 L 549.838134765625 834.92041015625 L 853.0774536132813 580.4783935546875 C 857.824462890625 576.4978637695313 863.60400390625 574.5535278320313 869.3507690429688 574.5533447265625 C 876.5819091796875 574.55322265625 883.7614135742188 577.63134765625 888.770263671875 583.6046142578125 C 897.759765625 594.3247680664063 896.364501953125 610.3080444335938 885.6441650390625 619.3150024414063 L 582.4227294921875 873.7392578125 L 582.9701538085938 874.3927612304688 L 563.5430908203125 890.69384765625 C 558.7960815429688 894.6744384765625 553.0166625976563 896.6188354492188 547.2698974609375 896.6188354492188 C 540.0386962890625 896.6188354492188 532.8590087890625 893.5407104492188 527.8500366210938 887.567626953125 L 387.8868408203125 720.7597045898438 L 387.8515625 720.7949829101563 L 355.2492065429688 681.9583740234375 L 355.320068359375 681.9232177734375 L 182.7191162109375 476.2257080078125 C 173.729736328125 465.5052490234375 175.1248779296875 449.5220336914063 185.8450927734375 440.51513671875 L 185.8629150390625 440.4973754882813 C 190.60986328125 436.5167236328125 196.3895263671875 434.5723876953125 202.13623046875 434.572265625 C 209.367431640625 434.5720825195313 216.546875 437.6502075195313 221.5556640625 443.6233520507813 L 394.1387329101563 649.3208618164063 L 836.052001953125 278.5106201171875 L 835.7869873046875 278.1752319335938 L 855.2141723632813 261.8740234375 C 859.961181640625 257.8933715820313 865.7409057617188 255.9490356445313 871.4876708984375 255.9488525390625 Z" stroke="none" fill="#333"/>
  </g>
</svg>
