<svg id="logo_back_1280x800" xmlns="http://www.w3.org/2000/svg" width="1280" height="787.2" viewBox="0 0 1280 787.2">
  <g id="Caminho_14" data-name="Caminho 14" transform="translate(513.677 -219.478)" fill="rgba(124,252,0,0)">
    <path d="M 480.6856994628906 493.9902038574219 L 450.500244140625 458.0132446289063 L 725.24609375 227.4734649658203 C 727.3974609375 225.6658477783203 729.8157348632813 224.2754669189453 732.4349975585938 223.3398895263672 C 734.9656372070313 222.4359741210938 737.61865234375 221.9776306152344 740.3202514648438 221.9776306152344 C 747.2918701171875 221.9776306152344 753.85498046875 225.0361328125 758.3268432617188 230.3688812255859 C 760.3673706054688 232.801513671875 761.8695678710938 235.558349609375 762.7919311523438 238.5630187988281 C 763.6829833984375 241.4655914306641 763.9994506835938 244.4783477783203 763.7325439453125 247.5175476074219 C 763.4657592773438 250.5558929443359 762.6295776367188 253.4664764404297 761.2471313476563 256.1683959960938 C 759.81689453125 258.9637756347656 757.8602905273438 261.4137268066406 755.4317016601563 263.4502258300781 L 480.6856994628906 493.9902038574219 Z" stroke="none"/>
    <path d="M 740.3203125 224.4776306152344 C 737.906005859375 224.4776306152344 735.5359497070313 224.8869323730469 733.2759399414063 225.6942138671875 C 730.9375 226.5294799804688 728.77734375 227.7717590332031 726.85302734375 229.3885803222656 L 454.022216796875 458.3214111328125 L 480.993896484375 490.468017578125 L 753.8253173828125 261.5345764160156 C 758.1181640625 257.9349060058594 760.7521362304688 252.8792114257813 761.2421875 247.2988586425781 C 761.732421875 241.7156677246094 760.0169067382813 236.2738037109375 756.4112548828125 231.9752197265625 C 752.4156494140625 227.2103881835938 746.5506591796875 224.4776306152344 740.3203125 224.4776306152344 M 740.3203125 219.4776306152344 C 747.7396850585938 219.4776306152344 755.106689453125 222.6380004882813 760.2424926757813 228.7624816894531 C 769.4746704101563 239.7688903808594 768.0264282226563 256.1515808105469 757.0380249023438 265.3658447265625 L 480.37744140625 497.5123596191406 L 446.978271484375 457.7049865722656 L 723.6390380859375 225.558349609375 C 728.502685546875 221.4718933105469 734.4283447265625 219.4776306152344 740.3203125 219.4776306152344 Z" stroke="none" fill="#333"/>
  </g>
  <g id="Caminho_15" data-name="Caminho 15" transform="translate(-176.794 -125.436)" fill="rgba(124,252,0,0)">
    <path d="M 556.5318603515625 910.1357421875 C 549.5672607421875 910.1358642578125 543.0103149414063 907.0800170898438 538.542236328125 901.7517700195313 L 395.0794067382813 730.773193359375 L 393.3285827636719 728.6865844726563 L 393.2918395996094 728.7232055664063 L 363.6693115234375 693.43603515625 L 363.7412719726563 693.4003295898438 L 361.6983337402344 690.9657592773438 L 184.7823333740234 480.1256408691406 C 182.7465667724609 477.6977844238281 181.2468109130859 474.9443664550781 180.3253936767578 471.9423522949219 C 179.4349212646484 469.0410766601563 179.1181030273438 466.029052734375 179.3838653564453 462.990234375 C 179.6497497558594 459.9510498046875 180.4846954345703 457.0390625 181.8657531738281 454.3354187011719 C 183.294921875 451.5371704101563 185.2510375976563 449.0838928222656 187.6796264648438 447.0434265136719 L 187.7625732421875 446.9736633300781 L 187.77783203125 446.9583740234375 C 189.9090728759766 445.1871948242188 192.2997741699219 443.8218383789063 194.8856353759766 442.8990783691406 C 197.4166870117188 441.9958801269531 200.0692749023438 441.5379028320313 202.7698669433594 441.5379028320313 C 209.7344512939453 441.5379028320313 216.2912750244141 444.5936584472656 220.7590484619141 449.9216613769531 L 397.6574096679688 660.7620239257813 L 399.2643432617188 662.6773071289063 L 401.1795043945313 661.0702514648438 L 854.1405639648438 280.9897766113281 L 856.000244140625 279.4294128417969 L 855.7285766601563 279.0856018066406 L 873.7818603515625 263.9371948242188 C 875.9330444335938 262.1334228515625 878.3521118164063 260.7445983886719 880.9710693359375 259.8099975585938 C 883.5020141601563 258.9068298339844 886.1546630859375 258.4489440917969 888.8551635742188 258.4489440917969 C 895.8198852539063 258.4489440917969 902.376708984375 261.5046997070313 906.8445434570313 266.8327026367188 L 1082.135620117188 475.7401733398438 L 1064.137939453125 490.8416442871094 C 1061.98681640625 492.6456604003906 1059.56787109375 494.0343627929688 1056.948852539063 494.9689331054688 C 1054.417846679688 495.8722534179688 1051.76513671875 496.3302307128906 1049.064697265625 496.3302307128906 C 1042.10009765625 496.3302307128906 1035.543334960938 493.2743530273438 1031.07568359375 487.9463500976563 L 887.8296508789063 317.2931823730469 L 886.2225952148438 315.3786010742188 L 884.3077392578125 316.9854125976563 L 431.3648071289063 697.083984375 L 429.4498596191406 698.69091796875 L 431.0567016601563 700.6060180664063 L 557.249267578125 851.0017700195313 L 558.856201171875 852.9169311523438 L 560.7714233398438 851.3099975585938 L 871.5916137695313 590.5068359375 C 873.7427978515625 588.7029418945313 876.1617431640625 587.3142700195313 878.7807006835938 586.379638671875 C 881.3116455078125 585.4765014648438 883.9642333984375 585.0184936523438 886.664794921875 585.0184936523438 C 893.6295166015625 585.0184936523438 900.1863403320313 588.0743408203125 904.6542358398438 593.4024658203125 C 906.6905517578125 595.830810546875 908.1903076171875 598.584228515625 909.1117553710938 601.5862426757813 C 910.002197265625 604.487548828125 910.3190307617188 607.4993896484375 910.0532836914063 610.538330078125 C 909.7874145507813 613.5775146484375 908.9523315429688 616.4894409179688 907.5714111328125 619.1931762695313 C 906.14208984375 621.9912719726563 904.1860961914063 624.444580078125 901.7575073242188 626.4850463867188 L 590.95654296875 887.2689208984375 L 589.0429077148438 888.8745727539063 L 589.6041259765625 889.5444946289063 L 571.6050415039063 904.6472778320313 C 569.453857421875 906.4512939453125 567.034912109375 907.8400268554688 564.4159545898438 908.7745971679688 C 561.8850708007813 909.6777954101563 559.2324829101563 910.1356811523438 556.5318603515625 910.1357421875 Z" stroke="none"/>
    <path d="M 888.8552856445313 260.948974609375 C 886.4417724609375 260.948974609375 884.07177734375 261.3580322265625 881.8111572265625 262.1647338867188 C 879.472412109375 262.9992065429688 877.3111572265625 264.240234375 875.388671875 265.8523559570313 L 859.1951904296875 279.4403076171875 L 859.466796875 279.7841186523438 L 855.7476196289063 282.9049682617188 L 402.7864379882813 662.9854125976563 L 398.9559936523438 666.1995239257813 L 395.7421264648438 662.3689575195313 L 218.8433837890625 451.5280151367188 C 214.851806640625 446.7677612304688 208.9931640625 444.0376586914063 202.7698974609375 444.0379028320313 C 200.3563232421875 444.0379028320313 197.9864501953125 444.4469604492188 195.725830078125 445.253662109375 C 193.4517822265625 446.0650634765625 191.345703125 447.2608032226563 189.4625244140625 448.809326171875 L 189.4537353515625 448.818115234375 L 189.2877197265625 448.9573974609375 C 184.9954833984375 452.5637817382813 182.36279296875 457.6246948242188 181.87451171875 463.2080078125 C 181.38623046875 468.7899780273438 183.099365234375 474.2279052734375 186.6973876953125 478.5187377929688 L 363.613525390625 689.3588256835938 L 367.6992797851563 694.22802734375 L 367.6279907226563 694.2633056640625 L 393.4501342773438 725.023193359375 L 393.4871826171875 724.986083984375 L 396.9944458007813 729.166259765625 L 540.457763671875 900.1453857421875 C 544.4496459960938 904.9056396484375 550.308349609375 907.6357421875 556.5318603515625 907.6357421875 C 558.9452514648438 907.6357421875 561.315185546875 907.2266845703125 563.5757446289063 906.420166015625 C 565.914306640625 905.5855712890625 568.0755004882813 904.344482421875 569.9981079101563 902.7322387695313 L 586.0833129882813 889.2352294921875 L 585.5220947265625 888.5654296875 L 589.349609375 885.3538818359375 L 900.1492919921875 624.5709228515625 C 904.441650390625 620.9647216796875 907.074462890625 615.9037475585938 907.5626831054688 610.3204956054688 C 908.0509033203125 604.7385864257813 906.3377685546875 599.3008422851563 902.7385864257813 595.0088500976563 C 898.746826171875 590.2484741210938 892.88818359375 587.5183715820313 886.6650390625 587.5184936523438 C 884.2514038085938 587.5186157226563 881.8814086914063 587.9276733398438 879.6209106445313 588.734375 C 877.2822265625 589.56884765625 875.1210327148438 590.8098754882813 873.1986083984375 592.421875 L 562.3783569335938 853.2249755859375 L 558.548095703125 856.4388427734375 L 555.334228515625 852.6085815429688 L 429.1415405273438 702.2129516601563 L 425.927734375 698.3829345703125 L 429.7576293945313 695.1689453125 L 882.7005615234375 315.0703735351563 L 886.5300903320313 311.856689453125 L 889.7443237304688 315.6859130859375 L 1032.9912109375 486.3400268554688 C 1036.982543945313 491.10009765625 1042.841186523438 493.8301391601563 1049.064575195313 493.8301391601563 C 1051.47802734375 493.8301391601563 1053.848022460938 493.4210815429688 1056.108520507813 492.6143798828125 C 1058.447265625 491.77978515625 1060.6083984375 490.5386962890625 1062.530883789063 488.9265747070313 L 1078.613647460938 475.4320068359375 L 904.928955078125 268.4390869140625 C 900.937255859375 263.6788330078125 895.07861328125 260.94873046875 888.8552856445313 260.948974609375 M 888.8551635742188 255.9489135742188 C 896.2671508789063 255.94873046875 903.6260986328125 259.1038208007813 908.76025390625 265.2263793945313 L 1085.65771484375 476.04833984375 L 1065.744873046875 492.7568359375 C 1060.879272460938 496.8369140625 1054.954956054688 498.8301391601563 1049.064575195313 498.8301391601563 C 1041.652709960938 498.8301391601563 1034.2939453125 495.67529296875 1029.159912109375 489.552734375 L 885.9146728515625 318.9004516601563 L 432.9717407226563 698.9990234375 L 559.1644287109375 849.3947143554688 L 869.9846801757813 588.5916748046875 C 874.8504028320313 584.5115966796875 880.7744140625 582.5186767578125 886.664794921875 582.5185546875 C 894.0767211914063 582.5183715820313 901.435791015625 585.6735229492188 906.56982421875 591.796142578125 C 915.7840576171875 602.7842407226563 914.35400390625 619.1670532226563 903.3656005859375 628.399169921875 L 592.5635375976563 889.18408203125 L 593.1246948242188 889.8538818359375 L 573.2119750976563 906.5625 C 568.3462524414063 910.6427001953125 562.42236328125 912.6357421875 556.5319213867188 912.6357421875 C 549.1199340820313 912.6357421875 541.7607421875 909.4805908203125 536.6265869140625 903.358154296875 L 393.1642456054688 732.380126953125 L 393.1281127929688 732.416259765625 L 359.710693359375 692.6087036132813 L 359.7832641601563 692.57275390625 L 182.8671875 481.7326049804688 C 173.653076171875 470.7442626953125 175.083251953125 454.3613891601563 186.0714111328125 445.1292724609375 L 186.089599609375 445.111083984375 C 190.955322265625 441.0309448242188 196.87939453125 439.0379638671875 202.769775390625 439.037841796875 C 210.1817626953125 439.0376586914063 217.5406494140625 442.1927490234375 222.6746826171875 448.3153076171875 L 399.5724487304688 659.1551513671875 L 852.5336303710938 279.07470703125 L 852.261962890625 278.73095703125 L 872.1748046875 262.0220947265625 C 877.04052734375 257.9420166015625 882.9647216796875 255.9490356445313 888.8551635742188 255.9489135742188 Z" stroke="none" fill="#333"/>
  </g>
</svg>
